PathFileType	4	(X/Y/Z)	E:\MaartenAfschrift\ProcessCardiffData\Gait_Perturbation\osimData\Patient9\Static.trc
DataRate	CameraRate	NumFrames	NumMarkers	Units	OrigDataRate	OrigDataStartFrame	OrigNumFrames
200.000000	200.000000	8	56	m	200.000000	762	1523
Frame#	Times	LFHD			RFHD			LBHD			RBHD			C7			CLAV			LSHO			LUA1			LELB			LLA1			LWRA			LWRB			LFIN			RSHO			RUA1			RELB			RLA1			RWRA			RWRB			RFIN			LASI			RASI			RPSI			LPSI			LTHI			LTHI2			LTHI3			LKNE			LKNEmed			LTIB			LTIB2			LTIB3			LANK			LANKmed			LHEE			LTOE			LLatFoot			RTHI			RTHI2			RTHI3			RKNE			RKNEmed			RTIB			RTIB2			RTIB3			RANK			RANKmed			RHEE			RTOE			RLatFoot			Unlabeled50			Unlabeled51			Unlabeled52			*53			*54			*55
		X1	Y1	Z1	X2	Y2	Z2	X3	Y3	Z3	X4	Y4	Z4	X5	Y5	Z5	X6	Y6	Z6	X7	Y7	Z7	X8	Y8	Z8	X9	Y9	Z9	X10	Y10	Z10	X11	Y11	Z11	X12	Y12	Z12	X13	Y13	Z13	X14	Y14	Z14	X15	Y15	Z15	X16	Y16	Z16	X17	Y17	Z17	X18	Y18	Z18	X19	Y19	Z19	X20	Y20	Z20	X21	Y21	Z21	X22	Y22	Z22	X23	Y23	Z23	X24	Y24	Z24	X25	Y25	Z25	X26	Y26	Z26	X27	Y27	Z27	X28	Y28	Z28	X29	Y29	Z29	X30	Y30	Z30	X31	Y31	Z31	X32	Y32	Z32	X33	Y33	Z33	X34	Y34	Z34	X35	Y35	Z35	X36	Y36	Z36	X37	Y37	Z37	X38	Y38	Z38	X39	Y39	Z39	X40	Y40	Z40	X41	Y41	Z41	X42	Y42	Z42	X43	Y43	Z43	X44	Y44	Z44	X45	Y45	Z45	X46	Y46	Z46	X47	Y47	Z47	X48	Y48	Z48	X49	Y49	Z49	X50	Y50	Z50	X51	Y51	Z51	X52	Y52	Z52	X53	Y53	Z53	X54	Y54	Z54	X55	Y55	Z55	X56	Y56	Z56

762	3.81	0.033407	1.5723	-0.066063	0.12547	1.6227	0.035006	-0.090218	1.5605	0.019603	0.017122	1.5739	0.12347	-0.044185	1.4502	0.014883	0.067752	1.3654	0.02321	0.043375	1.3799	-0.16647	0.046836	1.2068	-0.21768	0.046427	1.0968	-0.22804	0.08603	1.0073	-0.21104	0.10461	0.89384	-0.15219	0.05275	0.87391	-0.19908	0.10462	0.83141	-0.19558	0.039562	1.3896	0.21494	0.043928	1.2169	0.27239	0.037256	1.1053	0.29149	0.0784	1.0009	0.28597	0.11238	0.89645	0.23515	0.054671	0.87939	0.274	0.10072	0.84649	0.27754	0.13143	0.90621	-0.071011	0.13574	0.90591	0.13738	-0.096205	0.9526	0.070612	-0.095913	0.96133	0.0012886	0.070823	0.6491	-0.13434	-0.0022584	0.65632	-0.14499	0.030955	0.60661	-0.1351	0.007928	0.48231	-0.10515	0.016736	0.47215	0.0036203	-0.0060346	0.27403	-0.13069	-0.060762	0.2735	-0.13575	-0.031264	0.22634	-0.13314	-0.045064	0.10994	-0.12402	-0.014094	0.10906	-0.047091	-0.10018	0.05879	-0.066013	0.11165	0.070333	-0.12508	0.014445	0.045561	-0.16835	0.083232	0.67211	0.21065	0.024009	0.66944	0.23235	0.051769	0.62429	0.21465	0.012339	0.49158	0.19183	0.0056453	0.47471	0.078874	-0.023045	0.25965	0.23037	-0.084581	0.26098	0.23373	-0.05732	0.22015	0.23253	-0.065273	0.11407	0.22008	-0.034102	0.1085	0.1432	-0.11977	0.052408	0.17315	0.093819	0.063814	0.19764	-0.0014197	0.041872	0.2596	0.38409	0.043622	-0.65138	-0.45143	0.032597	0.62244	0.24351	0.045511	0.60238	-0.41794	0.035626	-0.63487	0	0	0	0	0	0
763	3.815	0.033478	1.5723	-0.066023	0.12552	1.6227	0.035044	-0.090152	1.5605	0.019622	0.01715	1.5739	0.12351	-0.044156	1.4502	0.014931	0.067789	1.3654	0.023224	0.043337	1.3799	-0.16643	0.046865	1.2068	-0.21766	0.046458	1.0968	-0.228	0.086058	1.0073	-0.21098	0.1046	0.89385	-0.15214	0.05277	0.8739	-0.19905	0.10461	0.83139	-0.19554	0.03957	1.3896	0.21496	0.043912	1.2168	0.27241	0.037266	1.1053	0.29153	0.078369	1.0008	0.28598	0.11235	0.89645	0.23518	0.054657	0.87937	0.27401	0.10073	0.84649	0.27755	0.1314	0.90619	-0.070991	0.13572	0.90591	0.1374	-0.096212	0.95265	0.070635	-0.09591	0.96133	0.0012895	0.070821	0.6491	-0.1343	-0.0022926	0.6563	-0.14497	0.03093	0.60661	-0.13505	0.0081302	0.48228	-0.10518	0.016725	0.47215	0.0036557	-0.0060254	0.27405	-0.13068	-0.060759	0.27351	-0.13572	-0.03126	0.22635	-0.13314	-0.045079	0.10995	-0.12402	-0.014075	0.10907	-0.047134	-0.10022	0.058813	-0.065966	0.11164	0.070308	-0.12508	0.014674	0.045483	-0.16836	0.083191	0.67212	0.2107	0.024	0.66944	0.23237	0.051761	0.62429	0.21472	0.012323	0.49158	0.19182	0.0056377	0.47472	0.078882	-0.023031	0.25964	0.23038	-0.084523	0.26103	0.23366	-0.057315	0.22014	0.23252	-0.065292	0.11408	0.22008	-0.034071	0.10851	0.14323	-0.11977	0.052425	0.17312	0.093876	0.063812	0.19762	-0.0017504	0.041991	0.25968	0.38404	0.043656	-0.6514	-0.45114	0.032456	0.6221	0.24341	0.045494	0.60238	-0.41867	0.036347	-0.63405	0	0	0	0	0	0
764	3.82	0.033533	1.5723	-0.066011	0.12559	1.6226	0.035086	-0.090082	1.5605	0.019603	0.017202	1.5739	0.1235	-0.044089	1.4502	0.014877	0.067801	1.3654	0.023243	0.043367	1.3799	-0.16644	0.046898	1.2068	-0.21763	0.046476	1.0968	-0.22797	0.086064	1.0073	-0.21097	0.1046	0.89381	-0.15212	0.052752	0.87388	-0.19905	0.10464	0.83138	-0.19552	0.039618	1.3896	0.21497	0.043898	1.2168	0.27244	0.03726	1.1053	0.29155	0.078382	1.0008	0.28599	0.11234	0.89646	0.23518	0.054661	0.87938	0.274	0.10073	0.84648	0.27756	0.1314	0.90619	-0.070966	0.13569	0.90591	0.13743	-0.096237	0.95264	0.070667	-0.09593	0.96135	0.0013072	0.070798	0.6491	-0.1343	-0.002297	0.65631	-0.14495	0.030928	0.60662	-0.13503	0.0082055	0.48223	-0.10511	0.016721	0.47213	0.0036715	-0.0060183	0.27404	-0.13066	-0.060776	0.27352	-0.13573	-0.031259	0.22636	-0.13315	-0.045152	0.11003	-0.12414	-0.014082	0.10906	-0.047136	-0.1002	0.058819	-0.065965	0.11165	0.070322	-0.12506	0.014697	0.045486	-0.16835	0.083131	0.67212	0.21073	0.024015	0.66944	0.23239	0.051719	0.62429	0.21475	0.012358	0.49159	0.19181	0.0056258	0.47471	0.078909	-0.02304	0.25965	0.23039	-0.084586	0.26096	0.23368	-0.057364	0.22014	0.23254	-0.065231	0.11406	0.22005	-0.03414	0.1085	0.14322	-0.11976	0.052413	0.17311	0.093809	0.063838	0.19767	-0.0017689	0.041986	0.25967	0.38418	0.044195	-0.65084	-0.45016	0.032123	0.62173	0.24349	0.045494	0.60239	-0.41793	0.035527	-0.63495	0	0	0	0	0	0
765	3.825	0.033589	1.5723	-0.065975	0.12565	1.6226	0.035144	-0.090016	1.5605	0.019614	0.017253	1.5739	0.12354	-0.044118	1.4502	0.014936	0.067789	1.3654	0.023264	0.043407	1.3799	-0.16642	0.046943	1.2068	-0.21757	0.0465	1.0968	-0.22795	0.086098	1.0072	-0.21091	0.10459	0.89382	-0.15209	0.052794	0.87387	-0.19899	0.10463	0.83137	-0.1955	0.039612	1.3896	0.21498	0.043921	1.2169	0.27244	0.037264	1.1053	0.29157	0.078377	1.0009	0.28602	0.11234	0.89646	0.23521	0.054632	0.87938	0.27404	0.10071	0.84648	0.27759	0.13138	0.90618	-0.070951	0.1357	0.90591	0.13746	-0.096269	0.95265	0.070709	-0.095949	0.96135	0.0013383	0.070798	0.6491	-0.1343	-0.0023449	0.65631	-0.14492	0.0309	0.60662	-0.13504	0.0079047	0.48231	-0.10511	0.016678	0.47212	0.0036695	-0.0060635	0.27405	-0.13068	-0.060712	0.27351	-0.13566	-0.031289	0.22637	-0.13314	-0.045098	0.10993	-0.12401	-0.014073	0.10906	-0.047156	-0.10025	0.058798	-0.065933	0.11166	0.070341	-0.12505	0.014693	0.045486	-0.16838	0.083157	0.67211	0.21073	0.024005	0.66944	0.2324	0.051748	0.6243	0.21475	0.012298	0.49158	0.19185	0.0055841	0.47472	0.078904	-0.023067	0.25964	0.23039	-0.084613	0.26098	0.23368	-0.05735	0.22013	0.23255	-0.065269	0.11407	0.22006	-0.034174	0.1085	0.14321	-0.11978	0.052394	0.17313	0.093809	0.063815	0.19764	-0.0017613	0.04197	0.25966	0.38413	0.044057	-0.65067	-0.45095	0.032407	0.62217	0.24337	0.045447	0.60235	-0.41749	0.035295	-0.63511	0	0	0	0	0	0
766	3.83	0.033699	1.5723	-0.065938	0.12572	1.6226	0.035182	-0.089963	1.5605	0.019668	0.017239	1.5739	0.12342	-0.044067	1.4502	0.014952	0.067809	1.3653	0.023267	0.043412	1.3799	-0.16641	0.046964	1.2068	-0.21756	0.046527	1.0968	-0.22791	0.08613	1.0073	-0.21087	0.10459	0.89382	-0.15206	0.052716	0.87388	-0.19902	0.1046	0.83136	-0.19547	0.03965	1.3896	0.21502	0.043897	1.2168	0.27246	0.037251	1.1053	0.29159	0.078386	1.0009	0.28604	0.11234	0.89647	0.23523	0.054634	0.87938	0.27406	0.1007	0.84649	0.27761	0.13135	0.90619	-0.070932	0.13571	0.90592	0.13746	-0.096237	0.95266	0.07069	-0.095948	0.96135	0.0013783	0.070783	0.64909	-0.13425	-0.0024029	0.65631	-0.14495	0.030876	0.60661	-0.13501	0.0078925	0.48232	-0.10509	0.016672	0.47213	0.0036924	-0.006073	0.27405	-0.13065	-0.060733	0.27353	-0.13566	-0.03129	0.22636	-0.13314	-0.045077	0.10993	-0.12402	-0.014014	0.10908	-0.047164	-0.10055	0.058918	-0.066008	0.11164	0.070318	-0.12506	0.014417	0.045562	-0.16837	0.083201	0.67211	0.2107	0.023942	0.66944	0.23242	0.051758	0.62429	0.21475	0.012293	0.49157	0.19188	0.0055742	0.47472	0.078916	-0.02292	0.25961	0.23027	-0.084583	0.26103	0.23367	-0.057345	0.22014	0.23256	-0.065296	0.11406	0.2201	-0.034066	0.10852	0.14325	-0.11977	0.052407	0.17311	0.093847	0.063805	0.19761	-0.0017761	0.041989	0.25967	0.38413	0.044078	-0.65091	-0.45118	0.032522	0.62237	0.24345	0.045545	0.60238	-0.41788	0.03549	-0.63496	0	0	0	0	0	0
767	3.835	0.033759	1.5723	-0.065923	0.12577	1.6226	0.035204	-0.089926	1.5606	0.01964	0.017379	1.5739	0.12358	-0.044024	1.4502	0.014925	0.067826	1.3653	0.023282	0.043495	1.3799	-0.16632	0.046989	1.2067	-0.21753	0.046564	1.0968	-0.22785	0.086125	1.0073	-0.21083	0.10461	0.8938	-0.15201	0.052765	0.87387	-0.199	0.10464	0.83134	-0.19543	0.039657	1.3896	0.21503	0.043892	1.2169	0.2725	0.037273	1.1053	0.29161	0.078374	1.0009	0.28606	0.11234	0.89646	0.23523	0.054619	0.87937	0.27409	0.1007	0.84648	0.27762	0.13133	0.90619	-0.070906	0.1357	0.90592	0.1375	-0.096265	0.95266	0.070735	-0.095941	0.96136	0.0014155	0.070747	0.64912	-0.13421	-0.0023541	0.65633	-0.14489	0.030875	0.60659	-0.13499	0.0078515	0.48233	-0.10507	0.016699	0.47212	0.0037218	-0.0060507	0.27406	-0.13064	-0.060811	0.27352	-0.13568	-0.031317	0.22636	-0.13312	-0.045135	0.11004	-0.12416	-0.014058	0.10906	-0.047194	-0.10023	0.05881	-0.065948	0.11171	0.070373	-0.12507	0.014664	0.045475	-0.16838	0.083179	0.67211	0.21073	0.023997	0.66945	0.23242	0.051717	0.62429	0.21478	0.01233	0.49159	0.19187	0.0055554	0.47473	0.078926	-0.023014	0.25963	0.23034	-0.084561	0.26103	0.2337	-0.057382	0.22013	0.23258	-0.065294	0.11405	0.22008	-0.0341	0.1085	0.14321	-0.11976	0.052434	0.17313	0.09382	0.063827	0.19765	-0.0017827	0.041973	0.25968	0.38413	0.043974	-0.65108	-0.45091	0.032393	0.62221	0.24351	0.045457	0.60237	-0.41791	0.035398	-0.63494	0	0	0	0	0	0
768	3.84	0.033817	1.5723	-0.065887	0.12589	1.6225	0.035288	-0.089869	1.5606	0.019664	0.017336	1.5738	0.12347	-0.044038	1.4502	0.015007	0.067846	1.3653	0.023311	0.043463	1.3799	-0.16637	0.047035	1.2067	-0.2175	0.046594	1.0968	-0.22784	0.086153	1.0073	-0.21077	0.10459	0.89379	-0.15199	0.052789	0.87386	-0.19896	0.10465	0.83136	-0.1954	0.039673	1.3896	0.21505	0.043886	1.2168	0.27253	0.037249	1.1053	0.29164	0.078373	1.0008	0.28607	0.11232	0.89648	0.23527	0.054626	0.87937	0.27411	0.10069	0.84651	0.27763	0.13132	0.90618	-0.070873	0.13568	0.90593	0.13752	-0.096266	0.95265	0.070758	-0.095941	0.96134	0.0014242	0.070761	0.64909	-0.13424	-0.0024059	0.65631	-0.14488	0.030826	0.60662	-0.135	0.007841	0.4823	-0.10505	0.016687	0.47212	0.0037305	-0.0060709	0.27407	-0.13063	-0.060797	0.27352	-0.13567	-0.03131	0.22637	-0.13313	-0.045128	0.11003	-0.12415	-0.014047	0.10901	-0.047342	-0.10024	0.05879	-0.065932	0.11168	0.070358	-0.12505	0.014456	0.045547	-0.16836	0.083166	0.6721	0.21075	0.023959	0.66945	0.23245	0.051742	0.6243	0.21479	0.012337	0.49159	0.19187	0.0055168	0.47474	0.078947	-0.022916	0.25961	0.23023	-0.084617	0.26096	0.2337	-0.057351	0.22014	0.23258	-0.065285	0.11405	0.22007	-0.034135	0.1085	0.14325	-0.11975	0.052412	0.1731	0.09388	0.063836	0.19761	-0.0017602	0.041978	0.25966	0.38414	0.043767	-0.65103	-0.45099	0.0324	0.62219	0.24349	0.045448	0.60234	-0.41784	0.035351	-0.63507	0	0	0	0	0	0
769	3.845	0.033891	1.5723	-0.065872	0.12599	1.6225	0.035338	-0.089789	1.5606	0.019691	0.017447	1.5739	0.12361	-0.043972	1.4502	0.014948	0.067846	1.3653	0.023311	0.043485	1.3799	-0.16633	0.047042	1.2067	-0.21748	0.046604	1.0968	-0.22781	0.086178	1.0073	-0.21074	0.10462	0.89377	-0.15195	0.052805	0.87387	-0.19892	0.10466	0.83134	-0.19535	0.039684	1.3896	0.21507	0.043897	1.2169	0.27255	0.037256	1.1053	0.29166	0.078363	1.0009	0.28608	0.11231	0.89648	0.23527	0.054638	0.87938	0.2741	0.10072	0.84651	0.27764	0.13129	0.90617	-0.070857	0.13569	0.90593	0.13755	-0.096279	0.95266	0.070777	-0.095999	0.96136	0.0014465	0.070727	0.64911	-0.13424	-0.0024323	0.65631	-0.1449	0.03085	0.60663	-0.13493	0.0081534	0.4822	-0.10504	0.016691	0.47211	0.003748	-0.0060678	0.27406	-0.13062	-0.060733	0.27355	-0.13561	-0.031336	0.22635	-0.13311	-0.045164	0.11004	-0.12417	-0.01409	0.10903	-0.047203	-0.10018	0.058803	-0.065981	0.11164	0.070335	-0.12506	0.01468	0.045479	-0.16838	0.083196	0.67211	0.21072	0.023949	0.66944	0.23245	0.051722	0.6243	0.21481	0.012304	0.49161	0.19188	0.0055368	0.47475	0.078978	-0.023018	0.25966	0.23037	-0.084608	0.26097	0.23369	-0.057383	0.22013	0.23257	-0.065299	0.11406	0.2201	-0.034139	0.10851	0.14324	-0.11979	0.052419	0.17314	0.093826	0.063831	0.19763	-0.0017636	0.041982	0.25966	0.38422	0.043996	-0.65098	-0.45042	0.032182	0.62187	0.24346	0.045512	0.6024	-0.41856	0.036294	-0.63413	0	0	0	0	0	0
